<svg width="393" height="852" viewBox="0 0 393 852" fill="none" xmlns="http://www.w3.org/2000/svg">
  <defs>
    <radialGradient id="bgGlow" cx="0" cy="0" r="1" gradientUnits="userSpaceOnUse" gradientTransform="translate(196 34) rotate(90) scale(432 330)">
      <stop stop-color="#10264B"/>
      <stop offset="0.45" stop-color="#09182E"/>
      <stop offset="1" stop-color="#050B14"/>
    </radialGradient>
    <radialGradient id="dealioAura" cx="0" cy="0" r="1" gradientUnits="userSpaceOnUse" gradientTransform="translate(329 109) rotate(131.9) scale(188 142)">
      <stop stop-color="#3F7CFF" stop-opacity="0.38"/>
      <stop offset="0.52" stop-color="#17E2C2" stop-opacity="0.1"/>
      <stop offset="1" stop-color="#050B14" stop-opacity="0"/>
    </radialGradient>
    <linearGradient id="agentRing" x1="31" y1="105" x2="62" y2="136" gradientUnits="userSpaceOnUse">
      <stop stop-color="#7EA7FF"/>
      <stop offset="0.47" stop-color="#3F7CFF"/>
      <stop offset="1" stop-color="#78F6D4"/>
    </linearGradient>
    <linearGradient id="cardFill" x1="22" y1="93" x2="372" y2="720" gradientUnits="userSpaceOnUse">
      <stop stop-color="#162235"/>
      <stop offset="1" stop-color="#0D1728"/>
    </linearGradient>
    <linearGradient id="inputFill" x1="16" y1="763" x2="377" y2="825" gradientUnits="userSpaceOnUse">
      <stop stop-color="#FFFFFF" stop-opacity="0.16"/>
      <stop offset="1" stop-color="#FFFFFF" stop-opacity="0.06"/>
    </linearGradient>
    <linearGradient id="glassStroke" x1="20" y1="766" x2="372" y2="825" gradientUnits="userSpaceOnUse">
      <stop stop-color="#DCE8FF" stop-opacity="0.34"/>
      <stop offset="1" stop-color="#6E9BFF" stop-opacity="0.16"/>
    </linearGradient>
    <filter id="softShadow" x="-20" y="-20" width="433" height="892" filterUnits="userSpaceOnUse" color-interpolation-filters="sRGB">
      <feDropShadow dx="0" dy="18" stdDeviation="20" flood-color="#000000" flood-opacity="0.35"/>
    </filter>
    <style>
      .title { font: 700 17px -apple-system, BlinkMacSystemFont, "SF Pro Display", Inter, Arial, sans-serif; fill: #F3F7FF; letter-spacing: -0.3px; }
      .label { font: 700 11px -apple-system, BlinkMacSystemFont, "SF Pro Text", Inter, Arial, sans-serif; fill: #7E95BD; letter-spacing: 1.4px; }
      .body { font: 600 13px -apple-system, BlinkMacSystemFont, "SF Pro Text", Inter, Arial, sans-serif; fill: #D8E3F7; letter-spacing: -0.1px; }
      .muted { font: 600 11px -apple-system, BlinkMacSystemFont, "SF Pro Text", Inter, Arial, sans-serif; fill: #8394B0; letter-spacing: -0.05px; }
      .small { font: 700 10px -apple-system, BlinkMacSystemFont, "SF Pro Text", Inter, Arial, sans-serif; fill: #95A9C8; letter-spacing: -0.05px; }
      .price { font: 800 28px -apple-system, BlinkMacSystemFont, "SF Pro Display", Inter, Arial, sans-serif; fill: #F5FAFF; letter-spacing: -1px; }
      .accent { fill: #6E9BFF; }
    </style>
  </defs>

  <rect width="393" height="852" fill="url(#bgGlow)"/>
  <rect width="393" height="852" fill="url(#dealioAura)"/>
  <path d="M-24 166C57 94 136 97 216 142C288 183 335 178 417 96" stroke="#2D66D8" stroke-opacity="0.1" stroke-width="2"/>
  <path d="M-18 713C61 645 125 637 203 684C279 730 324 718 416 641" stroke="#22DCC1" stroke-opacity="0.08" stroke-width="2"/>
  <path d="M39 115C93 76 156 72 217 104C272 133 314 129 362 93" stroke="#9DB9FF" stroke-opacity="0.08" stroke-width="1.5"/>
  <rect x="1" y="1" width="391" height="850" rx="31" stroke="#1D2A41" stroke-opacity="0.75"/>

  <g opacity="0.34">
    <circle cx="316" cy="79" r="96" fill="#214076"/>
    <circle cx="66" cy="744" r="128" fill="#0F2C53"/>
  </g>

  <g>
    <rect x="27" y="31" width="34" height="34" rx="17" fill="#121F33" stroke="#263854"/>
    <path d="M37 41H51M37 48H51M37 55H47" stroke="#DCE7F8" stroke-width="1.7" stroke-linecap="round"/>
    <circle cx="83" cy="48" r="17" fill="url(#agentRing)"/>
    <circle cx="83" cy="48" r="11" fill="#101B2C"/>
    <path d="M78.5 50.5C82.5 50.5 86.5 47.5 88.8 43.4C89.9 49 87.6 55 82.6 56.7C80.1 55.6 78.6 53.5 78.5 50.5Z" fill="#EAF1FF"/>
    <circle cx="96" cy="36" r="5.5" fill="#6EE7C6" stroke="#07101D" stroke-width="2"/>
    <text x="107" y="43" class="title">Dealio Agent</text>
    <text x="107" y="60" class="muted">Shopping copilot · real price logic</text>
  </g>

  <rect x="142" y="98" width="109" height="28" rx="14" fill="#0E192A" stroke="#20314E"/>
  <text x="164" y="116" class="small">Today · Dealio</text>

  <g>
    <circle cx="43" cy="155" r="17" fill="url(#agentRing)"/>
    <circle cx="43" cy="155" r="11" fill="#101B2C"/>
    <path d="M38.5 157.5C42.6 157.5 46.5 154.5 48.8 150.4C49.9 156 47.6 162 42.7 163.7C40.1 162.6 38.6 160.5 38.5 157.5Z" fill="#EAF1FF"/>
    <text x="70" y="148" class="label">DEALIO AI</text>
    <text x="70" y="169" class="body">Nimani topib beray? Byudjet, brend yoki</text>
    <text x="70" y="187" class="body">ehtiyojingizni oddiy yozing.</text>
  </g>

  <g>
    <rect x="72" y="219" width="301" height="66" rx="22" fill="#24314A" stroke="#314667"/>
    <text x="95" y="244" class="body">Kamera kuchli, 700$ gacha telefon kerak.</text>
    <text x="95" y="263" class="muted">Agar yaxshi narx bo‘lsa alert ham qo‘y.</text>
  </g>

  <g>
    <rect x="22" y="318" width="349" height="122" rx="26" fill="url(#cardFill)" stroke="#263A5A"/>
    <text x="46" y="348" class="label">SMART QUESTION</text>
    <text x="46" y="374" class="body">Qaysi biri siz uchun eng muhim?</text>
    <rect x="45" y="394" width="86" height="30" rx="15" fill="#20365A" stroke="#3C64A5"/>
    <text x="64" y="413" class="small">Camera</text>
    <rect x="141" y="394" width="86" height="30" rx="15" fill="#121F33" stroke="#2A3F61"/>
    <text x="158" y="413" class="small">Battery</text>
    <rect x="237" y="394" width="86" height="30" rx="15" fill="#121F33" stroke="#2A3F61"/>
    <text x="256" y="413" class="small">Balance</text>
  </g>

  <g>
    <rect x="22" y="464" width="349" height="154" rx="28" fill="#0F1A2B" stroke="#263A5A"/>
    <rect x="43" y="486" width="76" height="76" rx="22" fill="#18273D" stroke="#2B4163"/>
    <rect x="59" y="501" width="44" height="48" rx="10" fill="#263B5E"/>
    <rect x="64" y="506" width="34" height="38" rx="7" fill="#0A1220"/>
    <path d="M70 536H92" stroke="#5B82D8" stroke-width="2" stroke-linecap="round"/>
    <text x="139" y="495" class="label">BEST MATCH · 92%</text>
    <text x="139" y="521" class="title">iPhone 13 128GB</text>
    <text x="139" y="542" class="muted">Verified stores · clean condition</text>
    <text x="139" y="579" class="price">$489</text>
    <rect x="276" y="566" width="73" height="34" rx="17" fill="#477FFF"/>
    <text x="294" y="587" style="font: 800 11px -apple-system, BlinkMacSystemFont, 'SF Pro Text', Inter, Arial, sans-serif; fill: #FFFFFF;">Alert</text>
  </g>

  <g>
    <rect x="22" y="638" width="349" height="78" rx="24" fill="#111D30" stroke="#263A5A"/>
    <text x="46" y="664" class="label">PRICE INTELLIGENCE</text>
    <text x="46" y="688" class="body">Narx 6% tushgan. 24 soat kuzatish foydali.</text>
    <path d="M242 684C258 670 267 695 282 681C296 668 307 674 320 658" stroke="#6EE7C6" stroke-width="2.2" stroke-linecap="round"/>
  </g>

  <g>
    <rect x="22" y="664" width="176" height="112" rx="24" fill="#101B2C" stroke="#2B4163"/>
    <text x="44" y="691" class="label">ADD TO CHAT</text>
    <rect x="42" y="707" width="136" height="32" rx="16" fill="#15243A"/>
    <path d="M57 716V730M64 716V730M71 716V730M78 716V730" stroke="#8FB2FF" stroke-width="1.5"/>
    <text x="93" y="728" class="small">Barcode scan</text>
    <rect x="42" y="746" width="136" height="1" fill="#263A5A"/>
    <circle cx="64" cy="758" r="10" fill="#182F50"/>
    <path d="M58 760L63 755L67 759L70 756L74 762H58Z" fill="#8FB2FF"/>
    <text x="93" y="763" class="small">Image search</text>
  </g>

  <g filter="url(#softShadow)">
    <rect x="16" y="764" width="361" height="62" rx="31" fill="url(#inputFill)" stroke="url(#glassStroke)"/>
    <rect x="17" y="765" width="359" height="60" rx="30" fill="#07101D" fill-opacity="0.22"/>
    <circle cx="48" cy="795" r="19" fill="#17263D" stroke="#385988"/>
    <path d="M48 787V803M40 795H56" stroke="#E6EEFF" stroke-width="2" stroke-linecap="round"/>
    <text x="78" y="800" style="font: 650 15px -apple-system, BlinkMacSystemFont, 'SF Pro Text', Inter, Arial, sans-serif; fill: #A5B4CC; letter-spacing: -0.25px;">Dealio’ga yozing...</text>
    <circle cx="334" cy="795" r="19" fill="#477FFF"/>
    <path d="M326 803L342 787C343.4 785.6 345.8 787 344.8 788.8L337.5 803.4C336.8 804.8 334.8 804.8 334.1 803.4L331.8 798.9L326.4 796.2C324.8 795.4 324.7 794.3 326 793.7L342 787" stroke="#FFFFFF" stroke-width="1.9" stroke-linecap="round" stroke-linejoin="round"/>
  </g>
</svg>
